<svg xmlns="http://www.w3.org/2000/svg" viewBox="0 0 120 120" fill="none">
  <defs>
    <linearGradient id="ahdaGold" x1="0%" y1="0%" x2="100%" y2="100%">
      <stop offset="0%" stop-color="#F59E0B"/>
      <stop offset="50%" stop-color="#D97706"/>
      <stop offset="100%" stop-color="#B45309"/>
    </linearGradient>
    <linearGradient id="ahdaGreen" x1="0%" y1="0%" x2="100%" y2="100%">
      <stop offset="0%" stop-color="#10B981"/>
      <stop offset="100%" stop-color="#047857"/>
    </linearGradient>
    <linearGradient id="ahdaShield" x1="0%" y1="0%" x2="0%" y2="100%">
      <stop offset="0%" stop-color="#1E3A8A"/>
      <stop offset="100%" stop-color="#0F172A"/>
    </linearGradient>
  </defs>
  <!-- Background Shield -->
  <path d="M60 6 L104 22 C104 68 84 100 60 114 C36 100 16 68 16 22 Z" fill="url(#ahdaShield)" stroke="url(#ahdaGold)" stroke-width="3" stroke-linejoin="round"/>
  <!-- Decorative Ring -->
  <circle cx="60" cy="56" r="34" stroke="url(#ahdaGold)" stroke-width="1.5" stroke-dasharray="3 3" opacity="0.6"/>
  <!-- Palm Trunk & Fronds -->
  <path d="M57 78 L57 56 Q57 52 60 52 Q63 52 63 56 L63 78 Z" fill="url(#ahdaGold)"/>
  <!-- Palm Fronds -->
  <path d="M60 52 Q44 42 34 50 Q48 56 58 55 Z" fill="url(#ahdaGreen)"/>
  <path d="M60 52 Q76 42 86 50 Q72 56 62 55 Z" fill="url(#ahdaGreen)"/>
  <path d="M60 48 Q46 32 38 38 Q50 44 58 48 Z" fill="url(#ahdaGreen)"/>
  <path d="M60 48 Q74 32 82 38 Q70 44 62 48 Z" fill="url(#ahdaGreen)"/>
  <path d="M60 44 Q56 26 60 22 Q64 26 60 44 Z" fill="url(#ahdaGreen)"/>
  <!-- Crossed Curved Swords -->
  <path d="M40 76 Q60 86 80 82" stroke="url(#ahdaGold)" stroke-width="2.5" stroke-linecap="round"/>
  <path d="M80 76 Q60 86 40 82" stroke="url(#ahdaGold)" stroke-width="2.5" stroke-linecap="round"/>
  <!-- Sword Handles -->
  <circle cx="38" cy="74" r="2.5" fill="url(#ahdaGold)"/>
  <circle cx="82" cy="74" r="2.5" fill="url(#ahdaGold)"/>
  <!-- Stars -->
  <polygon points="60,94 62,99 67,99 63,102 65,107 60,104 55,107 57,102 53,99 58,99" fill="url(#ahdaGold)"/>
</svg>
